<?xml version="1.0" encoding="utf-8"?>
<!-- Generator: Adobe Illustrator 25.2.0, SVG Export Plug-In . SVG Version: 6.00 Build 0)  -->
<svg version="1.1" id="Слой_1" xmlns="http://www.w3.org/2000/svg" xmlns:xlink="http://www.w3.org/1999/xlink" x="0px" y="0px"
	 viewBox="0 0 138 70" style="enable-background:new 0 0 138 70;" xml:space="preserve">
<style type="text/css">
	.st0{fill:#81B3D3;}
	.st1{fill:#23A9E1;}
	.st2{fill:#FFFFFF;}
	.st3{fill:#491213;}
	.st4{fill:#DC6243;}
	.st5{fill:#F49774;}
	.st6{fill:#F4B1A4;}
</style>
<g>
	<g>
		<path class="st0" d="M138,0H0l59.5,65.7c5.2,5.8,13.8,5.8,19,0L138,0z"/>
		<path class="st1" d="M36.7,0.5l32.1,37.9l32-37.7L36.7,0.5z"/>
		<path class="st2" d="M61.1,14.7h17.3c-1.3-0.8-4.4-4.6-6-3.2c-0.1,0.1-4.9-5.7-8-2.9c-2.7,2.5-4-0.3-7,1.6
			C53.8,12.6,59.4,13.9,61.1,14.7z M87.8,11.2L78,11.3C81.9,6.8,83.6,7.3,87.8,11.2z"/>
		<path class="st3" d="M97.6,3.6V1.2h2.1L97.6,3.6z M48.4,13c0.1,0.1,2.4-2.4,6.1-4.9c3.4-2.3,8.6-4.9,14.4-4.9
			c5.8,0,11.1,2.7,14.5,5c3.7,2.4,6,4.8,6.1,4.9l-2.5,3c-4.5,0.6-7.7,3.9-12.1,3.2c-2.2-0.4-2.3-1.6-2.9-2.9c-0.5-1-1.3-0.8-2.3-1.2
			c-0.9-0.4-1.5-1.1-3.4-0.7c-1.6,0.4-1.8,2.9-3.9,2.8c-1.1-0.1-1.2-1.6-2.8-3.6c-4.1-4.9-7.9-4.2-10.5,0.3l19.6,23.3L48.4,13z
			 M40,1.2v1.9l-1.6-1.9H40z M93.9,1.2h3.2v3L93.9,8V1.2z M89.8,12.6V1.2h3.5v7.4L89.8,12.6C89.8,12.6,89.9,12.6,89.8,12.6z
			 M89.3,2.2v9.9c-1.1-1.1-2.3-2.1-3.6-3L89.3,2.2z M85.2,1.9v6.8c-0.5-0.3-0.9-0.7-1.5-1c-0.7-0.4-1.4-0.9-2.2-1.3L85.2,1.9z
			 M80.8,1.7V6c-1-0.5-2.1-1-3.1-1.5L80.8,1.7z M81.4,1.2h3.7l-3.7,4.6V1.2z M85.7,1.2h3.6l-3.6,7.1V1.2z M76.9,1.2h3.9l-3.5,3.1
			c-0.1,0-0.2-0.1-0.3-0.1L76.9,1.2z M76.4,1.6V4c-1-0.4-2-0.7-3.1-0.9L76.4,1.6z M72.2,1.6v1.3c-0.7-0.1-1.4-0.2-2.2-0.3L72.2,1.6z
			 M65.4,1.6l2.2,1c-0.8,0-1.5,0.1-2.2,0.3V1.6z M61.3,1.6l3.1,1.5c-1.1,0.2-2.1,0.5-3.1,0.9V1.6z M64.9,2.8l-3.3-1.6h3.3V2.8z
			 M68.4,2.4l-2.8-1.3h2.8V2.4z M69.1,1.2H72l-2.9,1.3V1.2z M72.8,1.2H76l-3.2,1.6V1.2z M60.4,4.3l-3.5-3.1h3.9v3L60.4,4.3z
			 M56.8,1.7l3.1,2.7c-1.1,0.4-2.1,0.9-3.1,1.5V1.7z M52.5,1.9l3.6,4.5c-1.3,0.7-2.5,1.5-3.6,2.4V1.9z M48.3,2.2l3.6,7
			c-1.3,1-2.5,2-3.6,3.2V2.2z M52,8.2l-3.6-7.1H52V8.2z M56.3,5.7l-3.7-4.6h3.7V5.7z M43.7,7.5l-3.2-3.8V1.2h3.2V7.5z M44.3,1.2h3.5
			v11.2l-3.5-4.2V1.2z M69.1,0H36v14.6l32.8,39.9l0.2-0.3L102,15V0H69.1z"/>
		<path class="st1" d="M66.2,46l2.6-4.2l2.6,4.2l-2.6,4.2L66.2,46z"/>
		<path class="st4" d="M74.2,30.6c-3.4-2-2.6-3.5,0.2-4.9c1.5-0.7,4.8-3.4,6.1-2.5L74.2,30.6z M71.9,33.1c-2-0.1-4.3-0.4-6.3,0.1
			c1.2,0.3,4.2,1.2,1.4,1.9c1,1.4,2.6,1.3,3.6,0.1c-0.4-0.2-0.7-0.5-1-0.7C70.7,34.2,71.7,33.6,71.9,33.1z M73.1,31.5
			c-0.9-0.8-1.9-0.8-2.7,0c-1.2-2.1-5.4-1.4-7.4-1.7C64.1,32.4,72.6,32.9,73.1,31.5z M66.3,29.3c-1.6-0.5-6.8-0.4-3.4-1.8
			C64,27.1,69.6,27.6,66.3,29.3z M68.3,26.3c-0.5-1.1,0.4-2.4,1.7-1.4C71.2,25.7,69.4,26.9,68.3,26.3z M65.4,26.4
			c-2.3,0.7-5.3-0.8-1.6-1.5C66.1,24.4,68.5,25.4,65.4,26.4C65.3,26.4,65.5,26.4,65.4,26.4z M62.8,20.2c-0.5,1.6-1.5,1.9-1.4,0
			c0.1-2.3,1.6-1.7,3.2-2.6c1.3-0.7,2-3.4,4.3-1.8c1,0.7,2.2,0.1,2.5,1.2c0-0.1-2.9,6.7-1.3,6.7c-3.2,0-1.8-3.8-0.6-6.4
			c-1.2,0.6-3.1,4.3-1.5,5c-0.8,1.1-3.4,2.6-4.7,1.5C62.2,22.8,62.8,21.5,62.8,20.2z M58.8,23c-5.6,0-1.8-8.6,0.1-8.1
			C61.1,15.6,60.8,23.1,58.8,23z M52.6,14.8c-2.6-0.1-1.5-2.6,0.3-3.1c1.7-0.5,5.2,1.1,6.4,2.2c-1.8,0.6-4.1,0.5-6.1,0.6
			C53,12.5,52.5,13.2,52.6,14.8z"/>
		<path class="st5" d="M71.8,25.8c-2.9-3,4.3-2.7,5.5-3.8c0.8,0.3,7-5.4,8.5-5c-1.1,1.3-3.4,5.3-5,5.3c-1.3,0-2.6-0.2-3.6,0.7
			C75.7,24.4,73.3,25.1,71.8,25.8z"/>
		<path class="st6" d="M72.7,22.2c-1.6,0.9-3.1-2.5-0.3-2.2c1.8,0.2,3.7-0.2,5.4,0.1C76.5,21.6,74.7,22.4,72.7,22.2z"/>
		<path class="st2" d="M51.1,20.9c0.3,0.4,0.6,0.8,0.5,1.4c0,0.4-0.6,1-0.2,1.2l1.5-1.8c-0.4-0.1-3.5-3.8-3.5-4.2l-2.1,1.1
			c0.1,0.4,0.8,0,1.2,0c0.5,0,0.9,0.4,1.3,0.7c-1.1,0.9-3.8,3.3-4.1,3.3c-0.1,0-0.7-0.4-0.7,0c0,0.2,0.6,0.7,0.7,0.8l1.4,1.7
			c0.4-0.2-0.1-0.5,0.1-0.8C47.3,24.1,50.4,21.6,51.1,20.9z M47.7,16.4c0.3-0.1,0.4,0.3,0.6,0l-1.6-1.9c-0.2-0.3-0.5-0.6-0.5,0
			c0.1,0.4-4,3.7-4.2,3.8c-0.3,0.1-0.5-0.3-0.7,0.1c0.5,0.6,0.9,1.1,1.4,1.7c0.2,0.2,0.3,0.4,0.5,0.6c0.2,0.2,0.1-0.4,0.1-0.4
			c-0.1-0.3,0.3-0.6,0.6-0.8C44.9,18.5,47.4,16.4,47.7,16.4z M42,15.8c-1.1,0.3-2.4-0.1-2.7-1.3c-0.4-1.2,0.4-2.4,1.3-3.1
			c0.9-0.7,2.3-0.6,2.8,0.5c0.2,0.5,0.1,1.1-0.1,1.6c-0.1,0.3-0.4,0.6,0,0.8c0.6-0.7,1.1-1.4,1.7-2.1c-0.7-0.4-1-1.1-1.5-1.7
			c-0.6-0.7-1.3-1.4-2.3-1.5c-1.9-0.3-3.6,1.7-3.8,3.4c-0.1,0.9,0.2,1.8,0.8,2.6c0.5,0.6,1.2,1.1,1.6,1.8c0.2,0.1,1.8-0.7,2.1-0.8
			C42.1,16,42,15.9,42,15.8C41.5,16,42,15.8,42,15.8z M67.5,39.4c-0.7-0.5-2.6-3-3-3.5l-0.2-0.3l-0.2,0.1c-0.1,0.1,0.1,0.4,0,0.6
			c-0.5,0.8-3.7,3.2-3.9,3.4c-0.4,0.2-0.8-0.1-1,0.2c0.5,0.6,1.8,2.3,2,2.3c0.3,0,0.1-0.5,0.1-0.6c0.1-0.2,1.7-1.6,2.3-2.1
			c0.2-0.2,0.4,0.3,0.6,0.5c0.2,0.3,0.3,0.7,0.2,1c-0.1,0.2-0.5,0.6-0.2,0.8c0.4-0.5,1.5-1.8,1.7-2c0.2-0.2-0.4,0-0.3-0.1
			c-0.2,0.1-0.5,0.2-0.7,0c-0.1,0-0.7-0.7-0.6-0.8c0.3-0.2,0.6-0.6,1-0.7c0.6-0.1,1,1,1.1,1.4c0.1,0.4,0.1,0.8-0.1,1.1
			c-0.1,0.3-0.3,0.5,0,0.6l1.4-1.9C67.7,39.5,67.6,39.5,67.5,39.4C67.4,39.4,67.6,39.5,67.5,39.4z M58.3,30.5c-0.7,0-1.4,0.3-2,0.8
			c-1.4,1.2-1.6,3.3-0.5,4.8c1.3,1.7,3.4,1.9,5.1,0.7c1.4-1.2,1.6-3.3,0.5-4.8C60.6,31,59.4,30.5,58.3,30.5z M59.5,31.9
			c0.9-0.1,1.5,0.8,1.1,1.8c-0.4,1-1.4,2-2.4,2.4c-1.2,0.5-2-0.5-1.5-1.7c0.4-1,1.4-2,2.4-2.4C59.2,32,59.3,31.9,59.5,31.9z
			 M56.7,27.3c0.3,0,0.6,0.4,0.8,0l-1.4-1.7c-0.4,0.2,0,0.4-0.1,0.6c-0.2,0.3-1.7,0.5-2.1,0.6c0.1-0.4,0.6-1.7,0.8-1.8
			c0.4-0.3,0.6,0.3,0.8-0.1l-1.8-2.1c-0.2-0.2-0.4-0.7-0.6-0.4c0,0,0,1-0.1,1.1c-0.1,0.2-0.6,2.4-1.2,2.9c-0.3,0.3-1.5,1.3-1.8,1.4
			c-0.3,0.1-0.5-0.4-0.8,0l1.6,1.9c0.1,0.1,0.4,0.6,0.5,0.6c0.3,0.1,0-0.6,0.1-0.7c0.1-0.3,1.6-1.8,2.3-1.9
			C54.6,27.5,55.7,27.2,56.7,27.3C56.9,27.3,56.5,27.3,56.7,27.3z M80.9,34c0.1,0.4,0.2,0.9,0.1,1.3c-0.1,0.6-0.6,1.9-1.4,1.5
			c-0.8-0.4-1.4-1.1-2.1-1.7c0.5-0.6,1-1.1,1.9-0.8c0.2,0.1,0.4,0,0.2-0.2c-0.3-0.2-2-1.3-2.1-1.2c-0.2,0.2,0.3,0.6,0.1,1
			c-0.1,0.3-0.4,0.5-0.6,0.8c-0.5-0.4-1.2-0.8-0.7-1.5c0.4-0.4,0.8-0.8,1.4-0.9c0.4-0.1,1.2,0.3,1.3-0.1c-0.7-0.3-1.4-0.7-2.1-1
			c0.1,0.5-2.2,2.9-2.7,3.5c-0.1,0.1-0.4,0.4-0.4,0.5c0,0.3,0.4,0.1,0.4,0.1c0.3-0.1,4.4,3.3,4.5,3.6c0.1,0.2-0.1,0.4,0,0.5
			c0,0,0.1,0.1,0.2,0.1c0.3-0.3,2.9-3.9,3.5-4c-0.5-0.8-1-1.6-1.5-2.4C80.5,33.3,80.8,33.8,80.9,34z M76.9,38.4
			c-1.3-0.9-3.6,0.8-4,1c-0.7,0.3-1.2-0.4-0.8-1c0.3-0.5,0.9-0.8,1.5-0.8c0.2,0,0.9,0.1,0.9,0c0.1-0.1,0.1-0.1,0-0.2
			c-0.6-0.4-1.1-0.8-1.7-1.1c-0.1,0.7-0.9,1.1-1.3,1.6c-0.5,0.6-1,1.3-1,2c0,0.7,0.4,1.4,1.1,1.7c0.7,0.4,1.5,0.1,2.2-0.3
			c0.4-0.3,0.8-0.6,1.2-0.8c0.6-0.3,1.5,0,1.3,0.8c-0.2,0.7-0.9,1.3-1.6,1.5c-0.4,0.1-0.8,0.1-1.2-0.1c-0.3-0.1-0.6-0.5-0.8-0.1
			l2.3,1.6c0.1-0.5,0.3-0.7,0.7-1c0.5-0.4,0.9-0.9,1.3-1.4C77.8,40.9,78.1,39.3,76.9,38.4z M94.5,10.3
			C94.5,10.4,94.5,10.4,94.5,10.3l-0.9,1l-0.8,1c-0.2,0.2-0.3,0.3,0,0.5c0.5-0.3,3.5,4.8,3.3,5.5c-0.5,0.2-4.5-3.3-4.6-3.5
			c0-0.1,0.2-0.7-0.1-0.6c-0.1,0-0.5,0.6-0.6,0.7l-0.6,0.7c0.2,0.3,0.3,0,0.6,0c0.2,0.1,1.2,0.9,1.5,1.1c-0.5,0-1.7,0.1-1.9,0.1
			c-0.6,0.1-0.3-0.4-0.7-0.6L88.2,18l-0.9,1c0,0,0,0,0,0.1c0.2,0.2,0.1,0.1,0.4,0c0.3-0.1,4.3,3.2,4.4,3.4c0.2,0.3-0.1,0.6,0.3,0.8
			l1.2-1.4c0.1-0.1,0.1-0.1,0-0.1c-0.3-0.2-0.3,0.1-0.7,0.1c-0.3-0.1-2.9-2.2-3.8-3l5.3-0.2c0.2,0,0.7,0.6,0.7,0.8
			c-0.1,0.2-0.3,0.4,0,0.5c0.3-0.4,0.6-0.7,0.9-1.1l0.1-0.2c0.1,0,0.1-0.1,0.1-0.2l0.1-0.1c0.3-0.3,1.2-1.3,1.1-1.4
			c-0.3-0.3-0.4,0.3-0.8,0c-0.2-0.2-0.8-1.2-0.9-1.4c-0.2-0.3,0.4-0.6,0.6-0.7c0.5-0.3,2.1-0.8,2.3,0.2c0,0.2-0.2,0.4-0.1,0.5
			c0,0,0.1,0.2,0.2,0.1l2.1-2.6c-0.1-0.1-0.1-0.1-0.2-0.2c-0.5,0.5-5.5-1.5-5.8-1.8C94.7,10.9,94.7,10.3,94.5,10.3z M94.3,12.9
			c0.8,0.3,1.5,0.6,2.3,1c-0.2,0.1-0.4,0.2-0.6,0.3c-0.2,0.1-0.4,0.3-0.6,0.5L94.3,12.9z M87.7,20.6c-1.1-0.1-2.2,0.4-3,1.3
			c-1.2,1.5-1.1,3.7,0.4,4.9c1.5,1.2,3.7,0.9,4.9-0.5c1.2-1.5,1.1-3.7-0.4-4.9C89.1,21,88.4,20.7,87.7,20.6z M86.3,22.2
			c0.6,0,1.3,0.4,1.7,0.7c0.8,0.5,2.2,1.7,1.5,2.7c0-0.1,0.1-0.1-0.1,0.1c-0.8,0.8-2.2,0.1-2.9-0.5c-0.7-0.5-2-1.7-1.2-2.7
			C85.6,22.3,85.9,22.2,86.3,22.2z M83.2,26.5c-1.2-0.1-2.4,0.5-3.3,1.6c-0.6,0.8-1.3,1.5-1.9,2.3c0.2,0.3,0.5-0.1,0.8,0.1
			c0.3,0.2,4.1,3.3,4.1,3.5c0.1,0.3-0.2,0.4,0.1,0.6c0.1,0.1,2.9-3.4,3.2-4c0.4-1.1,0.1-2.4-0.8-3.2c0.1,0.1,0.2,0.1,0,0
			C84.6,26.8,83.9,26.5,83.2,26.5z M82.1,28.1c0.1,0,0.2,0,0.3,0c1.4,0.4,3.4,2.1,2.1,3.6c-0.2,0.2,0,0-0.4,0.4
			c-0.2,0.2-4.2-3-4-3.2C80.5,28.4,81.4,28,82.1,28.1z"/>
	</g>
</g>
</svg>
